# xmcd
#
# Track frame offsets: 
#        150
#        10292
#        22764
#        33138
#        47953
#        59696
#        72414
#        89134
#        102736
#        114455
#        130574
#        142917
#        158077
#        174620
#
# Disc length: 2549 seconds
#
# Revision: 1
# Processed by: cddbd v1.5.2PL0 Copyright (c) Steve Scherf et al.
# Submitted via: ExactAudioCopyFreeDBPlugin 1.0
#
DISCID=be09f30e
DTITLE=Johnny Cash - The Greatest Duets
DYEAR=2012
DGENRE=Country
TTITLE0=I've Been Everywhere (live, with Lynn Anderson)
TTITLE1=Jackson (with June Carter)
TTITLE2=I Got Stripes (with George Jones)
TTITLE3=There Ain't No Good Chain Gang (with Waylon Jennings)
TTITLE4=Another Man Done Gone (with Anita Carter)
TTITLE5=Silver Haired Daddy Of Mine (with Tommy Cash)
TTITLE6=Girl From The North Country (with Bob Dylan)
TTITLE7=If I Were A Carpenter (with June Carter Cash)
TTITLE8=Long-Legged Guitar Pickin' Man (with June Carter)
TTITLE9=Crazy Old Soldier (with Ray Charles)
TTITLE10=I Wish I Was Crazy Again (with Wayon Jennings)
TTITLE11=Jim, I Wore A Tie Today (with Willie Nelson)
TTITLE12=You Can't Beat Jesus Christ (with Billy Joe Shaver)
TTITLE13=The Greatest Cowboy Of Them All (with Waylon Jennings)
EXTD=
EXTT0=
EXTT1=
EXTT2=
EXTT3=
EXTT4=
EXTT5=
EXTT6=
EXTT7=
EXTT8=
EXTT9=
EXTT10=
EXTT11=
EXTT12=
EXTT13=
PLAYORDER=
